<svg xmlns="http://www.w3.org/2000/svg" viewBox="0 0 600 360"><rect width="600" height="360" fill="#F3F0F9"/><rect x="40" y="40" width="520" height="50" rx="8" fill="#FFFFFF" stroke="#E6E1F0"/><g fill="#FFFFFF" stroke="#E6E1F0"><rect x="40" y="110" width="60" height="60" rx="6"/><rect x="110" y="110" width="60" height="60" rx="6"/><rect x="180" y="110" width="60" height="60" rx="6"/><rect x="250" y="110" width="60" height="60" rx="6"/><rect x="320" y="110" width="60" height="60" rx="6"/><rect x="390" y="110" width="60" height="60" rx="6"/><rect x="460" y="110" width="60" height="60" rx="6"/><rect x="40" y="190" width="60" height="60" rx="6"/><rect x="110" y="190" width="60" height="60" rx="6"/><rect x="180" y="190" width="60" height="60" rx="6"/></g><rect x="180" y="190" width="60" height="60" rx="6" fill="#7C3AED"/><rect x="40" y="270" width="520" height="50" rx="8" fill="#FFFFFF" stroke="#E6E1F0"/></svg>
